{"title":"The Devil Is a Part-Timer! ep 5 &amp; 11","uid":10581363,"size":93226050,"categoryP":"video","categoryS":"tv_shows","magnet":"?xt=urn:btih:d8b16eb5e97801228ed20ac39c1eb75b0901cde6&amp;dn=The+Devil+Is+a+Part-Timer%21+ep+5+%26amp%3B+11&amp;tr=udp%3A%2F%2Ftracker.openbittorrent.com%3A80&amp;tr=udp%3A%2F%2Fopen.demonii.com%3A1337&amp;tr=udp%3A%2F%2Ftracker.coppersurfer.tk%3A6969&amp;tr=udp%3A%2F%2Fexodus.desync.com%3A6969","seeders":2,"leechers":0,"uploader":"p7trick","files":-1,"time":1405644307,"description":"justdubs\n\nThe Devil Is a Part-Timer! ep 5 &amp; 11 ENGLISH DUBBED\n_________________________________________________________\n\nFormat                                   : MPEG-4\nFormat profile                           : Base Media\nCodec ID                                 : isom\nFile size                                : 58.5 MiB\nDuration                                 : 23mn 51s\nOverall bit rate mode                    : Variable\nOverall bit rate                         : 343 Kbps\n\nVideo\nID                                       : 1\nFormat                                   : AVC\nFormat/Info                              : Advanced Video Codec\nFormat profile                           : &lt;a class=&quot;__cf_email__&quot; href=&quot;/cdn-cgi/l/email-protection&quot; data-cfemail=&quot;7f371618173f334c514e&quot;&gt;[email&amp;#160;protected]&lt;/a&gt;&lt;script cf-hash='f9e31' type=&quot;text/javascript&quot;&gt;\n/* &lt;![CDATA[ */!function(){try{var t=&quot;currentScript&quot;in document?document.currentScript:function(){for(var t=document.getElementsByTagName(&quot;script&quot;),e=t.length;e--;)if(t[e].getAttribute(&quot;cf-hash&quot;))return t[e]}();if(t&amp;&amp;t.previousSibling){var e,r,n,i,c=t.previousSibling,a=c.getAttribute(&quot;data-cfemail&quot;);if(a){for(e=&quot;&quot;,r=parseInt(a.substr(0,2),16),n=2;a.length-n;n+=2)i=parseInt(a.substr(n,2),16)^r,e+=String.fromCharCode(i);e=document.createTextNode(e),c.parentNode.replaceChild(e,c)}}}catch(u){}}();/* ]]&gt; */&lt;/script&gt;\nFormat settings, CABAC                   : Yes\nFormat settings, ReFrames                : 3 frames\nCodec ID                                 : avc1\nCodec ID/Info                            : Advanced Video Coding\nDuration                                 : 23mn 51s\nBit rate mode                            : Variable\nBit rate                                 : 300 Kbps\nMaximum bit rate                         : 2 389 Kbps\nWidth                                    : 1 024 pixels\nHeight                                   : 576 pixels\nDisplay aspect ratio                     : 16:9\nFrame rate mode                          : Constant\nFrame rate                               : 23.976 fps\nColor space                              : YUV\nChroma subsampling                       : 4:2:0\nBit depth                                : 8 bits\nScan type                                : Progressive\nBits/(Pixel*Frame)                       : 0.021\nStream size                              : 51.1 MiB (87%)\nTitle                                    : Video\n\nAudio\nID                                       : 2\nFormat                                   : AAC\nFormat/Info                              : Advanced Audio Codec\nFormat profile                           : HE-AAC / LC\nCodec ID                                 : 40\nDuration                                 : 23mn 50s\nBit rate mode                            : Variable\nBit rate                                 : 40.0 Kbps\nMaximum bit rate                         : 68.2 Kbps\nChannel(s)                               : 2 channels\nChannel positions                        : Front: L R\nSampling rate                            : 48.0 KHz / 24.0 KHz\nCompression mode                         : Lossy\nStream size                              : 6.83 MiB (12%)\nLanguage                                 : English\n_________________________________________________________\n\nSummary:\nThe story centers around a demon king named Satan who is one step away from conquering his alternate world when he is transported to Tokyo of our world. He ends up having to work part-time at a fast food restaurant to make ends meet. In order to conquer Japan, he has to first move up from a freelancer to an actual employee. Meanwhile, the heroine Emilia has arrived in Japan also, in pursuit of Satan.\n\nFor updates/requests:\nTwitter - @p7tricktorrent\nFacebook - /p7tricktorrent\nTPB - /user/p7trick/\nKAT - /user/iPirate7\n_________________________________________________________\n\nSEED!\n\nshare ratio:\n&quot;Scumbag = 0.1:1\nLeecher = 0.999:1\nMinimum = 1:1\nGood = 3:1\nGreat = 5:1\nAwesome = 10:1\n1337 = 100:1&quot;\t\t\t","torrent":{"xt":"urn:btih:d8b16eb5e97801228ed20ac39c1eb75b0901cde6","amp;dn":"The+Devil+Is+a+Part-Timer%21+ep+5+%26amp%3B+11","amp;tr":["udp%3A%2F%2Ftracker.openbittorrent.com%3A80","udp%3A%2F%2Fopen.demonii.com%3A1337","udp%3A%2F%2Ftracker.coppersurfer.tk%3A6969","udp%3A%2F%2Fexodus.desync.com%3A6969"],"infoHash":"d8b16eb5e97801228ed20ac39c1eb75b0901cde6","infoHashBuffer":{"type":"Buffer","data":[216,177,110,181,233,120,1,34,142,210,10,195,156,30,183,91,9,1,205,230]},"announce":[],"urlList":[]}}